<?xml version="1.0" encoding="UTF-8" standalone="no"?>
<svg width="52.494381" height="52.494381" version="1.1" id="svg23" sodipodi:docname="favicon.svg" inkscape:version="1.4 (86a8ad7, 2024-10-11)" xml:space="preserve" inkscape:export-filename="002_logo_and_title_and_slogen.png" inkscape:export-xdpi="96" inkscape:export-ydpi="96" xmlns:inkscape="http://www.inkscape.org/namespaces/inkscape" xmlns:sodipodi="http://sodipodi.sourceforge.net/DTD/sodipodi-0.dtd" xmlns="http://www.w3.org/2000/svg" xmlns:svg="http://www.w3.org/2000/svg"><defs id="defs23"><inkscape:path-effect effect="fillet_chamfer" id="path-effect24" is_visible="true" lpeversion="1" nodesatellites_param="F,0,0,1,0,0,0,1 @ F,0,0,1,0,0,0,1 @ F,0,0,1,0,0,0,1 @ F,0,0,1,0,0,0,1 @ F,0,0,1,0,8.7938958,0,1 @ F,0,0,1,0,0,0,1 @ F,0,0,1,0,0,0,1" radius="0" unit="px" method="auto" mode="F" chamfer_steps="1" flexible="false" use_knot_distance="true" apply_no_radius="true" apply_with_radius="true" only_selected="false" hide_knots="false" /><inkscape:path-effect effect="fill_between_many" method="originald" linkedpaths="#path24,0,1" id="path-effect25" is_visible="true" lpeversion="0" join="true" close="true" autoreverse="true" /></defs><sodipodi:namedview id="namedview23" pagecolor="#ffffff" bordercolor="#000000" borderopacity="0.25" inkscape:showpageshadow="2" inkscape:pageopacity="0.0" inkscape:pagecheckerboard="0" inkscape:deskcolor="#d1d1d1" inkscape:zoom="8.3437504" inkscape:cx="13.003745" inkscape:cy="27.505617" inkscape:window-width="1920" inkscape:window-height="1009" inkscape:window-x="3832" inkscape:window-y="-8" inkscape:window-maximized="1" inkscape:current-layer="svg23" showguides="true" /><rect style="opacity:1;fill:white;fill-opacity:1;stroke-width:10.8297" id="rect1" width="52.494381" height="52.494381" x="0" y="0" ry="11.575856" rx="15.460674" /><path id="path395" style="opacity:1;fill:#9baf9a;fill-opacity:1;stroke:none;stroke-width:0.732878;stroke-linecap:round;stroke-linejoin:round;stroke-dasharray:none;stroke-opacity:1" d="m 26.246792,4.0508313 c -12.2483,2e-4 -22.1774003,9.9372397 -22.1774003,22.1955697 -3e-4,12.25864 9.9288003,22.19695 22.1774003,22.19715 4.9261,-0.003 9.7106,-1.64829 13.5994,-4.67475 l 6.5296,3.55818 a 0.90387593,0.90387593 0 0 0 1.2864,-1.08894 l -2.7788,-8.04024 c 2.2968,-3.56341 3.5262,-7.71093 3.5416,-11.9514 -1e-4,-12.25858 -9.9297,-22.1957197 -22.1782,-22.1955697 z m -5.3357,12.1614497 c 1.294,0.0209 2.3473,0.33306 3.3371,0.98075 0.5046,0.33022 0.9704,0.74597 1.3732,1.22475 0.1735,0.20628 0.4178,0.5416 0.4793,0.65857 0.025,0.0486 0.013,0.0621 0.2416,-0.26059 0.6288,-0.8871 1.7347,-1.73349 2.7299,-2.08863 0.8823,-0.31487 1.7455,-0.43182 2.7164,-0.36956 0.5117,0.0328 0.7969,0.0761 1.171,0.17925 0.9853,0.27173 2.1325,0.92378 2.9383,1.67012 0.7844,0.72647 1.3206,1.4873 1.6772,2.38001 0.1683,0.42107 0.2215,0.59218 0.3364,1.0842 0.1893,0.81021 0.2579,1.49645 0.2322,2.30973 -0.049,1.542 -0.3692,2.84208 -1.0692,4.33599 -0.1401,0.29892 -0.2368,0.48149 -0.4825,0.91442 -0.4589,0.80882 -1.1672,1.82066 -1.8004,2.5719 -0.6532,0.77507 -1.8233,1.99567 -2.4503,2.5561 -0.1342,0.11995 -0.3752,0.34225 -0.5354,0.49354 -0.4304,0.40664 -0.8354,0.76589 -1.2081,1.07156 -0.1822,0.1494 -0.4345,0.36524 -0.5607,0.47931 -0.306,0.27671 -0.4267,0.3783 -0.6238,0.52354 -0.091,0.0671 -0.2975,0.23378 -0.4588,0.37114 -0.3594,0.30618 -1.0921,0.87183 -1.4964,1.15526 -0.1652,0.11582 -0.4495,0.31599 -0.6317,0.44458 -0.4429,0.31259 -0.8017,0.55355 -0.8244,0.55355 -0.01,0 -0.1786,-0.10285 -0.3743,-0.22821 -0.8821,-0.56513 -1.7164,-1.20017 -3.2865,-2.50241 -0.6282,-0.52096 -0.9922,-0.84879 -1.4783,-1.33215 -0.084,-0.0838 -0.2505,-0.24582 -0.3695,-0.36008 -0.7336,-0.70432 -1.0423,-1.02472 -1.7459,-1.81068 -1.014,-1.13251 -1.9667,-2.45421 -2.5917,-3.59687 -0.2423,-0.44294 -0.6139,-1.19619 -0.7051,-1.42848 -0.033,-0.0831 -0.068,-0.16336 -0.078,-0.17846 -0.044,-0.0635 -0.2862,-0.70147 -0.4257,-1.12526 -0.5889,-1.78928 -0.7581,-3.7999 -0.4524,-5.37753 0.3448,-1.77995 1.0604,-2.96441 2.3934,-3.96169 0.3678,-0.2752 0.5592,-0.39374 1.0321,-0.63883 0.8857,-0.45907 1.5621,-0.65154 2.4211,-0.69016 0.1951,-0.009 0.3852,-0.0117 0.5701,-0.009 z" /><path d="m 25.952192,33.254811 c -0.4199,-0.26904 -0.817,-0.57137 -1.5645,-1.19132 -0.299,-0.24801 -0.4723,-0.40422 -0.7037,-0.63433 -0.04,-0.0399 -0.1193,-0.117 -0.1759,-0.17139 -0.3492,-0.3353 -0.4963,-0.48778 -0.8313,-0.86195 -0.4827,-0.53914 -0.9361,-1.16854 -1.2337,-1.71252 -0.1153,-0.21087 -0.2923,-0.56919 -0.3357,-0.67977 -0.015,-0.0395 -0.032,-0.0778 -0.037,-0.085 -0.021,-0.0302 -0.136,-0.33424 -0.2024,-0.53598 -0.2804,-0.85182 -0.3609,-1.80878 -0.2154,-2.55983 0.1642,-0.84737 0.5048,-1.41127 1.1394,-1.88604 0.1751,-0.13101 0.2662,-0.1874 0.4913,-0.30408 0.4217,-0.21854 0.7436,-0.31038 1.1525,-0.32877 0.7434,-0.0334 1.3215,0.11042 1.86,0.4628 0.2402,0.15721 0.4621,0.35507 0.6539,0.583 0.083,0.0982 0.1988,0.25806 0.2281,0.31374 0.012,0.0231 0.01,0.0294 0.1152,-0.12419 0.2993,-0.42231 0.8257,-0.825 1.2995,-0.99407 0.42,-0.1499 0.8309,-0.20591 1.2931,-0.17627 0.2436,0.0156 0.3794,0.0365 0.5575,0.0856 0.4691,0.12936 1.0153,0.43985 1.3989,0.79516 0.3735,0.34584 0.6285,0.70779 0.7983,1.13278 0.08,0.20045 0.1054,0.28213 0.1601,0.51637 0.09,0.38571 0.123,0.71224 0.1107,1.09942 -0.023,0.73408 -0.1759,1.35297 -0.5091,2.06416 -0.067,0.14231 -0.1125,0.22926 -0.2295,0.43536 -0.2185,0.38505 -0.5557,0.86677 -0.8571,1.2244 -0.3109,0.36899 -0.8681,0.95019 -1.1666,1.21699 -0.064,0.0571 -0.1785,0.16275 -0.2547,0.23477 -0.205,0.19359 -0.3979,0.36472 -0.5754,0.51024 -0.087,0.0711 -0.2068,0.17375 -0.2669,0.22805 -0.1456,0.13173 -0.2033,0.18009 -0.2971,0.24924 -0.043,0.0319 -0.1416,0.11156 -0.2184,0.17695 -0.1711,0.14576 -0.5199,0.41505 -0.7124,0.54998 -0.079,0.0551 -0.2139,0.15034 -0.3006,0.21155 -0.2109,0.14882 -0.3816,0.26344 -0.3925,0.26344 -0.01,0 -0.085,-0.0488 -0.1782,-0.10851 z" id="path396" style="fill:#e5a290;fill-opacity:1;stroke:none;stroke-width:0.0125932" /></svg>
